<svg width="47" height="26" viewBox="0 0 47 26" fill="none" xmlns="http://www.w3.org/2000/svg">
<path d="M13 26C10.7408 26 8.52054 25.4112 6.55819 24.2917C4.59583 23.1722 2.95911 21.5606 1.80936 19.6159C0.659609 17.6711 0.0365342 15.4602 0.00155799 13.2013C-0.0334183 10.9423 0.520911 8.71322 1.6099 6.73377C2.69889 4.75432 4.28494 3.09284 6.21169 1.91312C8.13844 0.733403 10.3394 0.0761758 12.5975 0.00623161C14.8557 -0.0637126 17.0931 0.456041 19.0891 1.51425C21.0852 2.57247 22.771 4.1326 23.9805 6.04086L20.6863 8.1286C19.8397 6.79282 18.6596 5.70073 17.2624 4.95998C15.8651 4.21923 14.299 3.8554 12.7183 3.90436C11.1376 3.95332 9.59691 4.41338 8.24818 5.23919C6.89946 6.06499 5.78922 7.22803 5.02693 8.61364C4.26464 9.99926 3.87661 11.5596 3.90109 13.1409C3.92557 14.7222 4.36173 16.2697 5.16655 17.6311C5.97137 18.9924 7.11708 20.1206 8.49073 20.9042C9.86438 21.6879 11.4185 22.1 13 22.1L13 26Z" fill="#FFFA7A"/>
<rect x="13" y="22" width="12" height="4" fill="#FFFA7A"/>
<rect x="27" y="22" width="6" height="4" rx="2" fill="#FFFA7A"/>
<circle cx="10" cy="10" r="2" fill="#FFFA7A"/>
<path d="M19 26C17.6155 26 16.2622 25.5895 15.111 24.8203C13.9599 24.0511 13.0627 22.9579 12.5328 21.6788C12.003 20.3997 11.8644 18.9922 12.1345 17.6344C12.4046 16.2765 13.0713 15.0292 14.0503 14.0503C15.0292 13.0713 16.2765 12.4046 17.6344 12.1345C18.9922 11.8644 20.3997 12.003 21.6788 12.5328C22.9579 13.0627 24.0511 13.9599 24.8203 15.111C25.5895 16.2622 26 17.6155 26 19L22.0098 19C22.0098 18.4047 21.8333 17.8228 21.5025 17.3279C21.1718 16.8329 20.7018 16.4471 20.1518 16.2193C19.6018 15.9915 18.9967 15.9319 18.4128 16.048C17.829 16.1642 17.2927 16.4508 16.8718 16.8718C16.4508 17.2927 16.1642 17.829 16.048 18.4128C15.9319 18.9967 15.9915 19.6018 16.2193 20.1518C16.4471 20.7018 16.8329 21.1718 17.3279 21.5025C17.8228 21.8333 18.4047 22.0098 19 22.0098L19 26Z" fill="#FFFA7A"/>
<rect x="36" y="22" width="10" height="4" rx="2" fill="#FFFA7A"/>
<circle cx="38" cy="23" r="3" fill="#FFFA7A"/>
<circle cx="41.5" cy="21.5" r="3.5" fill="#FFFA7A"/>
<circle cx="44.5" cy="23.5" r="2.5" fill="#FFFA7A"/>
</svg>
